<svg width="32" height="32" viewBox="0 0 32 32" fill="none" xmlns="http://www.w3.org/2000/svg">
<path d="M21.6607 7.76C20.7452 6.7195 20.2407 5.38324 20.2411 4H16.1027V20.5333C16.0708 21.428 15.6913 22.2755 15.0443 22.8973C14.3973 23.519 13.5332 23.8665 12.6339 23.8667C10.7321 23.8667 9.15179 22.32 9.15179 20.4C9.15179 18.1067 11.375 16.3867 13.6652 17.0933V12.88C9.04464 12.2667 5 15.84 5 20.4C5 24.84 8.69643 28 12.6205 28C16.8259 28 20.2411 24.6 20.2411 20.4V12.0133C21.9192 13.2131 23.934 13.8569 26 13.8533V9.73333C26 9.73333 23.4821 9.85333 21.6607 7.76Z" fill="white"/>
</svg>
