<svg width="96" height="32" viewBox="0 0 96 32" fill="none" xmlns="http://www.w3.org/2000/svg">
<g clip-path="url(#clip0_257_69)">
<path fill-rule="evenodd" clip-rule="evenodd" d="M18.4995 26.4974V21.9935H5.10586V-0.00340601H0V26.4974H18.4995ZM26.1459 26.4974V-0.00340601H21.0401V26.4974H26.1459ZM50.7133 -0.00340601H28.8592V4.50048H37.2456V26.4974H42.3022V4.52536H50.6886L50.7133 -0.00340601ZM66.6968 16.9422C67.2641 16.5689 67.7821 16.0961 68.2014 15.5736C68.6208 15.0261 68.9414 14.4041 69.1634 13.7571C69.3854 13.0604 69.5087 12.3636 69.4841 11.642C69.5087 10.6964 69.2867 9.77575 68.8674 8.92972C68.4481 8.10857 67.8561 7.41183 67.1161 6.8644C66.3022 6.2672 65.3895 5.8193 64.4275 5.5207C63.3176 5.19722 62.1583 5.02303 60.9743 5.02303C60.037 5.02303 59.0997 5.12257 58.1624 5.29675C57.2991 5.47093 56.4358 5.74465 55.6218 6.06813C54.8818 6.39162 54.1912 6.78975 53.5252 7.26253C52.9332 7.68555 52.4399 8.2081 52.0452 8.8053L55.1531 12.3139C55.6958 11.3932 56.4358 10.6467 57.3484 10.1241C58.2857 9.60157 59.3217 9.32785 60.407 9.32785C61.5169 9.32785 62.4296 9.57669 63.1202 10.0744C63.8109 10.572 64.1562 11.3185 64.1562 12.3636C64.1809 13.3838 63.7122 14.3792 62.8982 15.0013C62.0596 15.698 60.8756 16.0215 59.3463 16.0215H58.187V19.754H59.223C61.073 19.754 62.4543 20.1023 63.3669 20.7991C64.2795 21.4958 64.7482 22.4911 64.7482 23.7851C64.7482 25.0292 64.3535 25.9499 63.5642 26.5471C62.7749 27.1443 61.6403 27.4429 60.111 27.4429C58.779 27.4429 57.6691 27.219 56.7811 26.7711C55.8931 26.3232 55.1038 25.6762 54.4871 24.8551L51.6752 28.4134C52.6372 29.5829 53.8705 30.5036 55.2765 31.0759C56.8551 31.7229 58.557 32.0215 60.259 31.9966C61.6156 32.0215 62.9476 31.8224 64.2549 31.4492C65.3402 31.1257 66.3762 30.628 67.2641 29.9064C68.0781 29.2594 68.7441 28.4383 69.1881 27.4927C69.6567 26.4974 69.8787 25.4274 69.8787 24.3076C69.8787 22.5658 69.4101 21.0977 68.4481 19.8784C67.5355 18.684 66.2035 17.8877 64.7235 17.6638C65.4635 17.5642 66.1048 17.3154 66.6968 16.9422ZM83.0504 26.4974C84.8756 26.5223 86.7009 26.1988 88.4029 25.5518C89.9322 24.9546 91.3381 24.0339 92.4974 22.8644C93.6567 21.67 94.5447 20.2516 95.112 18.684C95.7287 16.9422 96.0493 15.0759 96.0247 13.2097C96.0247 11.4678 95.7533 9.72599 95.2107 8.08368C94.1747 4.89861 91.8068 2.31075 88.7235 1.04169C86.9229 0.320078 85.0236 -0.0531727 83.075 -0.00340601H73.5046V26.4974H83.0504ZM90.3515 16.6933C90.0308 17.7135 89.5375 18.6591 88.8469 19.4803C88.1809 20.2765 87.3422 20.8986 86.4049 21.3216C85.3443 21.7944 84.2097 22.0184 83.0504 21.9935H78.6105V4.52536H83.0504C84.185 4.50048 85.3196 4.72443 86.3556 5.14745C87.2929 5.54558 88.1315 6.16767 88.8222 6.93905C89.5128 7.73532 90.0308 8.68089 90.3515 9.7011C90.6968 10.8457 90.8695 12.0153 90.8695 13.2097C90.8695 14.3792 90.6968 15.5736 90.3515 16.6933Z" fill="white"/>
</g>
<defs>
<clipPath id="clip0_257_69">
<rect width="96" height="32" fill="white"/>
</clipPath>
</defs>
</svg>
