<svg width="128" height="128" viewBox="0 0 128 128" fill="none" xmlns="http://www.w3.org/2000/svg">
<rect width="128" height="128" fill="black"/>
<g clip-path="url(#clip0_578_6)">
<path fill-rule="evenodd" clip-rule="evenodd" d="M36.3433 73.8447V69.6223H23.7867V49.0002H19V73.8447H36.3433ZM43.5118 73.8447V49.0002H38.7251V73.8447H43.5118ZM66.5437 49.0002H46.0555V53.2226H53.9178V73.8447H58.6583V53.2459H66.5206L66.5437 49.0002ZM81.5283 64.8867C82.0601 64.5368 82.5457 64.0935 82.9388 63.6036C83.332 63.0904 83.6326 62.5072 83.8407 61.9007C84.0488 61.2475 84.1644 60.5943 84.1413 59.9178C84.1644 59.0313 83.9563 58.1682 83.5632 57.375C83.1701 56.6052 82.6151 55.952 81.9214 55.4388C81.1583 54.8789 80.3027 54.459 79.4008 54.1791C78.3602 53.8758 77.2734 53.7125 76.1634 53.7125C75.2847 53.7125 74.406 53.8058 73.5272 53.9691C72.7179 54.1324 71.9085 54.389 71.1454 54.6923C70.4517 54.9956 69.8042 55.3688 69.1799 55.812C68.6249 56.2086 68.1624 56.6985 67.7924 57.2584L70.7061 60.5477C71.2148 59.6845 71.9085 58.9847 72.7641 58.4948C73.6429 58.0049 74.6141 57.7483 75.6315 57.7483C76.6721 57.7483 77.5277 57.9816 78.1752 58.4481C78.8227 58.9147 79.1465 59.6145 79.1465 60.5943C79.1696 61.5508 78.7302 62.4839 77.9671 63.0671C77.1809 63.7203 76.0709 64.0236 74.6372 64.0236H73.5504V67.5228H74.5216C76.2559 67.5228 77.5509 67.8494 78.4065 68.5026C79.2621 69.1557 79.7014 70.0889 79.7014 71.3019C79.7014 72.4683 79.3314 73.3315 78.5915 73.8914C77.8515 74.4512 76.7878 74.7312 75.3541 74.7312C74.1053 74.7312 73.0647 74.5212 72.2323 74.1013C71.3998 73.6814 70.6598 73.0749 70.0817 72.305L67.4455 75.641C68.3474 76.7374 69.5036 77.6005 70.8217 78.1371C72.3016 78.7436 73.8972 79.0236 75.4928 79.0002C76.7646 79.0236 78.0134 78.8369 79.2389 78.487C80.2564 78.1837 81.2276 77.7172 82.0601 77.0407C82.8232 76.4341 83.4476 75.6643 83.8638 74.7778C84.3032 73.8447 84.5113 72.8416 84.5113 71.7918C84.5113 70.1589 84.0719 68.7825 83.1701 67.6394C82.3145 66.5197 81.0658 65.7732 79.6783 65.5632C80.372 65.4699 80.9733 65.2366 81.5283 64.8867ZM96.8597 73.8447C98.5709 73.868 100.282 73.5648 101.878 72.9582C103.311 72.3984 104.629 71.5352 105.716 70.4388C106.803 69.319 107.636 67.9893 108.168 66.5197C108.746 64.8867 109.046 63.1371 109.023 61.3875C109.023 59.7545 108.769 58.1215 108.26 56.5819C107.289 53.5959 105.069 51.1697 102.178 49.98C100.49 49.3035 98.7097 48.9536 96.8828 49.0002H87.9106V73.8447H96.8597ZM103.705 64.6534C103.404 65.6099 102.941 66.4963 102.294 67.2662C101.67 68.0127 100.883 68.5959 100.005 68.9924C99.0103 69.4357 97.9466 69.6456 96.8597 69.6223H92.6973V53.2459H96.8597C97.9234 53.2226 98.9872 53.4326 99.9584 53.8292C100.837 54.2024 101.623 54.7856 102.271 55.5088C102.918 56.2553 103.404 57.1417 103.705 58.0982C104.028 59.1713 104.19 60.2677 104.19 61.3875C104.19 62.4839 104.028 63.6036 103.705 64.6534Z" fill="white"/>
</g>
<defs>
<clipPath id="clip0_578_6">
<rect width="90" height="30" fill="white" transform="translate(19 49)"/>
</clipPath>
</defs>
</svg>
